<svg xmlns="http://www.w3.org/2000/svg" xmlns:xlink="http://www.w3.org/1999/xlink" version="1.1" x="0px" y="0px" viewBox="0 0 52 65" enable-background="new 0 0 52 52" xml:space="preserve"><g><path d="M47,2H5C3.3500366,2,2,3.3399658,2,5v5h48V5C50,3.3399658,48.6600342,2,47,2z M9,8H7V6h2V8z M14,8h-2V6h2V8z"/><path d="M2,47c0,1.6500244,1.3500366,3,3,3h3.0300293v-5.3499756c0-0.5500488,0.4500122-1,1-1h0.9799805v-1.9599609H9.0300293   c-0.5499878,0-1-0.4499512-1-1v-3.9699707c0-1.0900879,0.8900146-1.9899902,1.9899902-1.9899902H12v-9.5900879   l-0.8999634-1.8999023c-0.0800171-0.170166-0.1099854-0.3701172-0.0800171-0.5700684l0.9899902-6.8200684   C12.0800171,15.3599854,12.5,15,13,15h3.960022c0.5,0,0.9199829,0.3599854,0.9899902,0.8599854l0.9899902,6.9300537   c0.0300293,0.2000732,0,0.4100342-0.0899658,0.5899658l-0.8900146,1.7700195v9.5900879h1.9700317   c1.0999756,0,1.9899902,0.8898926,1.9899902,1.9899902v3.9599609c0,0.5500488-0.4500122,1-1,1h-0.9800415v1.9599609h0.9800415   c0.5499878,0,1,0.4499512,1,1V50h7.6300049V33.2800293c-0.6400146-0.3099365-1.25-0.6800537-1.8300171-1.1400146   c-0.4799805-0.3800049-0.9100342-0.7900391-1.2600098-1.2099609c-1.5899658-1.7800293-2.4799805-4.1400146-2.4799805-6.6000977   c0-4.0998535,2.4500122-7.7399902,6.25-9.2600098c0.2999878-0.119873,0.6499634-0.079834,0.9299927,0.1000977   c0.2700195,0.1899414,0.4400024,0.5,0.4400024,0.8299561v7.8699951c0,0.6900635,0.5599976,1.25,1.25,1.25h2.25   c0.6900024,0,1.25-0.5599365,1.25-1.25V16c0-0.3299561,0.1599731-0.6400146,0.4400024-0.8299561   c0.2699585-0.1799316,0.6300049-0.2199707,0.9299927-0.1000977c3.7999878,1.5200195,6.2600098,5.1601563,6.2600098,9.2600098   c0,2.4500732-0.8900146,4.8000488-2.5,6.630127c-0.3699951,0.4299316-0.8099976,0.8399658-1.2800293,1.1999512   c-0.5499878,0.4399414-1.1599731,0.8000488-1.7999878,1.1099854V50H47c1.6600342,0,3-1.3499756,3-3V12H2V47z"/></g><text x="0" y="67" fill="#000000" font-size="5px" font-weight="bold" font-family="'Helvetica Neue', Helvetica, Arial-Unicode, Arial, Sans-serif">Created by DinosoftLabs</text><text x="0" y="72" fill="#000000" font-size="5px" font-weight="bold" font-family="'Helvetica Neue', Helvetica, Arial-Unicode, Arial, Sans-serif">from the Noun Project</text></svg>